<svg width="48" height="48" viewBox="0 0 48 48" fill="none" xmlns="http://www.w3.org/2000/svg">
<rect x="0.5" y="0.5" width="47" height="47" rx="23.5" stroke="#848386"/>
<path d="M24.8574 30C18.2975 30 14.5558 25.4955 14.3999 18H17.6858C17.7938 23.5015 20.2163 25.8318 22.1351 26.3123V18H25.2291V22.7447C27.124 22.5405 29.1147 20.3784 29.7863 18H32.8804C32.6273 19.2335 32.1228 20.4014 31.3985 21.4307C30.6742 22.46 29.7457 23.3285 28.671 23.982C29.8706 24.579 30.9302 25.4241 31.7798 26.4615C32.6295 27.4988 33.2498 28.7049 33.5999 30H30.194C29.8797 28.8751 29.241 27.8681 28.3578 27.1053C27.4746 26.3424 26.3862 25.8577 25.2291 25.7117V30H24.8574Z" fill="#848386"/>
</svg>
