<svg width="48" height="48" viewBox="0 0 48 48" fill="none" xmlns="http://www.w3.org/2000/svg">
<rect x="0.5" y="0.5" width="47" height="47" rx="23.5" stroke="#848386"/>
<path d="M30.7901 17.2004C28.9839 15.4004 26.5755 14.4004 24.0333 14.4004C18.7483 14.4004 14.4668 18.6671 14.4668 23.9337C14.4668 25.6004 14.9351 27.2671 15.7379 28.6671L14.3999 33.6004L19.4842 32.2671C20.8891 33.0004 22.4278 33.4004 24.0333 33.4004C29.3184 33.4004 33.5999 29.1337 33.5999 23.8671C33.533 21.4004 32.5964 19.0004 30.7901 17.2004ZM28.6494 27.3337C28.4487 27.8671 27.5121 28.4004 27.0438 28.4671C26.6424 28.5337 26.1072 28.5337 25.572 28.4004C25.2375 28.2671 24.7692 28.1337 24.234 27.8671C21.8257 26.8671 20.287 24.4671 20.1532 24.2671C20.0194 24.1337 19.1497 23.0004 19.1497 21.8004C19.1497 20.6004 19.7518 20.0671 19.9525 19.8004C20.1532 19.5337 20.4208 19.5337 20.6215 19.5337C20.7553 19.5337 20.956 19.5337 21.0898 19.5337C21.2236 19.5337 21.4243 19.4671 21.625 19.9337C21.8257 20.4004 22.294 21.6004 22.3609 21.6671C22.4278 21.8004 22.4278 21.9337 22.3609 22.0671C22.294 22.2004 22.2271 22.3337 22.0933 22.4671C21.9595 22.6004 21.8257 22.8004 21.7588 22.8671C21.625 23.0004 21.4912 23.1337 21.625 23.3337C21.7588 23.6004 22.2271 24.3337 22.963 25.0004C23.8996 25.8004 24.6354 26.0671 24.903 26.2004C25.1706 26.3337 25.3044 26.2671 25.4382 26.1337C25.572 26.0004 26.0403 25.4671 26.1741 25.2004C26.3079 24.9337 26.5086 25.0004 26.7093 25.0671C26.91 25.1337 28.1142 25.7337 28.3149 25.8671C28.5825 26.0004 28.7163 26.0671 28.7832 26.1337C28.8501 26.3337 28.8501 26.8004 28.6494 27.3337Z" fill="#848386"/>
</svg>
