<svg width="48" height="48" viewBox="0 0 48 48" fill="none" xmlns="http://www.w3.org/2000/svg">
<rect x="0.5" y="0.5" width="47" height="47" rx="23.5" stroke="#848386"/>
<path fill-rule="evenodd" clip-rule="evenodd" d="M16.3744 30.7744C16.0321 30.6629 15.7197 30.4647 15.4637 30.1965C15.2077 29.9282 15.0155 29.5977 14.9034 29.233C14.2628 27.3477 14.073 19.4753 15.3068 17.9212C15.7174 17.4156 16.2971 17.1043 16.9201 17.0549C20.2299 16.6728 30.4559 16.7237 31.6303 17.1823C31.9606 17.2974 32.2624 17.4913 32.5131 17.7494C32.7637 18.0075 32.9567 18.3231 33.0776 18.6727C33.7775 20.6217 33.8013 27.7044 32.9827 29.5769C32.7656 30.0644 32.4021 30.4592 31.9506 30.6979C30.7169 31.3603 18.0115 31.3476 16.3744 30.7744ZM21.6298 27.0802L27.5613 23.7681L21.6298 20.4306V27.0802Z" fill="#848386"/>
</svg>
